<?xml version="1.0" encoding="UTF-8" standalone="no"?><!-- Generator: Gravit.io --><svg xmlns="http://www.w3.org/2000/svg" xmlns:xlink="http://www.w3.org/1999/xlink" style="isolation:isolate" viewBox="0 0 50 50" width="50pt" height="50pt"><defs><clipPath id="_clipPath_nbnMzxtCbjix3DN2T8F2qVrgI7novWD2"><rect width="50" height="50"/></clipPath></defs><g clip-path="url(#_clipPath_nbnMzxtCbjix3DN2T8F2qVrgI7novWD2)"><rect x="11.125" y="11.938" width="26.875" height="28.063" transform="matrix(1,0,0,1,0,0)" fill="rgb(255,255,255)"/><path d=" M 38.875 6.5 L 11.125 6.5 C 8.577 6.5 6.5 8.577 6.5 11.125 L 6.5 38.875 C 6.5 41.423 8.577 43.5 11.125 43.5 L 31.938 43.5 L 43.5 31.938 L 43.5 11.125 C 43.5 8.577 41.423 6.5 38.875 6.5 Z  M 13.438 13.438 L 36.563 13.438 L 36.563 18.063 L 13.438 18.063 L 13.438 13.438 Z  M 13.438 27.313 L 13.438 22.688 L 36.563 22.688 L 36.563 27.313 L 13.438 27.313 Z  M 31.938 38.875 L 31.938 31.938 L 38.875 31.938 L 31.938 38.875 Z " fill="rgb(94,100,114)"/></g></svg>